<?xml version="1.0" encoding="utf-8"?>
<!-- Generator: Adobe Illustrator 27.0.0, SVG Export Plug-In . SVG Version: 6.00 Build 0)  -->
<svg version="1.1" id="Layer_1" xmlns="http://www.w3.org/2000/svg" xmlns:xlink="http://www.w3.org/1999/xlink" x="0px" y="0px"
	 viewBox="0 0 408.5 448.2" style="enable-background:new 0 0 408.5 448.2;" xml:space="preserve">
<style type="text/css">
	.st0{fill:#F8971D;}
	.st1{fill:#252525;}
	.st2{fill:#F58B1F;}
	.st3{fill:#263238;}
	.st4{fill:#455A64;}
	.st5{fill:#FFFFFF;}
	.st6{fill:#E8E8E3;}
	.st7{font-family:'Fredoka-Bold';}
	.st8{font-size:6.3392px;}
	.st9{fill:#7ECC94;}
	.st10{fill:#E0E0E0;}
	.st11{fill:#CB7421;}
	.st12{fill:#FFBE9D;}
	.st13{fill:#EB996E;}
	.st14{opacity:0.2;enable-background:new    ;}
	.st15{opacity:0.2;}
</style>
<g id="Mobile_login-pana" transform="translate(32.177 20.943)">
	<path id="Path_3850" class="st0" d="M172.1-20.9c112.8,0,204.2,91.4,204.2,204.2c0,98.6-69.8,180.9-162.7,200
		c-13.4,2.8-17.9,7.9-41.5,44c-21.6-33-27.9-41.2-41.2-43.9c-93-19-163-101.4-163-200.1C-32.2,70.5,59.3-20.9,172.1-20.9z"/>
	<g id="freepik--Padlock--inject-5" transform="translate(209.85 36.072)">
		<path id="Path_3778" class="st1" d="M41.3,14.8l-3.6,1.3l-1.6-4.7C33.6,2.9,24.7-1.8,16.3,0.7c-0.2,0.1-0.3,0.1-0.5,0.2
			c-8.4,3-12.9,12.6-10,21.3l1.6,4.7l-3.6,1.3c-2.9,1.1-4.4,4.3-3.4,7.3l10.1,30.9c0.9,2.9,3.9,4.5,6.8,3.7c0.1,0,0.1,0,0.2-0.1
			L55,56.5c2.9-1.1,4.4-4.4,3.4-7.3L48.3,18.3c-0.9-2.9-3.9-4.5-6.8-3.6C41.5,14.7,41.4,14.8,41.3,14.8L41.3,14.8z M12.7,19.7
			C11,15,13.5,9.8,18.1,8c4.6-1.6,9.5,0.9,11.1,5.4c0,0.1,0.1,0.2,0.1,0.3l1.6,4.7l-16.6,6L12.7,19.7z M33.8,47.1l2.6,7.9
			c0.1,0.3-0.1,0.7-0.4,0.8l-3.6,1.3c-0.3,0.1-0.6-0.1-0.7-0.4l-2.6-7.8c-2.9-0.2-5.5-2.1-6.3-4.9c-1.3-3.8,0.6-7.9,4.4-9.3
			c3.6-1.2,7.6,0.7,8.8,4.3c0,0.1,0.1,0.2,0.1,0.2C36.9,42,36.1,45.2,33.8,47.1L33.8,47.1z"/>
		<path id="Path_3779" class="st2" d="M37.5,16c0,0.1-6.7,2.6-15.1,5.6S7.2,27.1,7.2,27s6.7-2.6,15.1-5.6S37.5,15.9,37.5,16z"/>
		<path id="Path_3780" class="st2" d="M45.5,17.3c0,0.1,0.1,0.1,0.1,0.2c0.1,0.1,0.1,0.3,0.2,0.5c0.2,0.5,0.4,1.2,0.8,2.1l2.7,7.9
			c1.1,3.3,2.5,7.3,4,11.7c0.7,2.2,1.5,4.5,2.3,6.9c0.4,1.2,0.6,2.6,0.5,3.9c-0.1,0.7-0.3,1.3-0.6,2c-0.3,0.6-0.8,1.1-1.3,1.6
			c-1.1,0.8-2.3,1.4-3.6,1.8L47,57.2l-6.9,2.5l-11.6,4.1l-7.9,2.8l-2.1,0.7l-0.6,0.2c-0.1,0-0.1,0-0.2,0c0.1,0,0.1,0,0.2-0.1
			l0.5-0.2l2.1-0.8l7.8-2.9L40,59.3l6.9-2.5l3.6-1.3c1.2-0.4,2.4-1,3.5-1.8c0.5-0.4,0.9-0.9,1.2-1.5c0.3-0.6,0.5-1.2,0.5-1.8
			c0.1-1.3-0.1-2.5-0.5-3.7c-0.8-2.4-1.6-4.7-2.3-6.9c-1.5-4.4-2.8-8.4-3.9-11.7s-2-6-2.6-7.9c-0.3-0.9-0.5-1.6-0.7-2.2l-0.2-0.6
			C45.6,17.4,45.6,17.3,45.5,17.3L45.5,17.3z"/>
		<path id="Path_3781" class="st2" d="M25.7,7.6c0,0-0.4-0.2-1.1-0.5c-1-0.4-2-0.6-3.1-0.6C20,6.4,18.4,6.7,17,7.3
			c-1.7,0.8-3.2,2-4.3,3.6c-1.1,1.6-1.7,3.4-1.7,5.4c0,1.6,0.3,3.1,0.7,4.6c0.4,1.3,0.7,2.3,1,3c0.1,0.4,0.3,0.7,0.4,1.1
			c-0.2-0.3-0.4-0.7-0.5-1.1c-0.3-0.7-0.7-1.7-1.1-3c-0.5-1.5-0.8-3.1-0.8-4.7c0-2,0.6-3.9,1.7-5.6C13.5,9.1,15,7.8,16.8,7
			c1.5-0.6,3.1-0.9,4.7-0.8c1.1,0.1,2.1,0.3,3.1,0.7c0.3,0.1,0.5,0.3,0.8,0.4C25.5,7.4,25.6,7.5,25.7,7.6L25.7,7.6z"/>
		<path id="Path_3782" class="st3" d="M26,35.2c0.1-0.1,0.2-0.1,0.4-0.2c0.4-0.2,0.7-0.3,1.1-0.4c0.6-0.2,1.2-0.3,1.8-0.3
			c0.8,0,1.7,0.1,2.5,0.4c2.1,0.9,3.7,2.7,4.3,4.9c0.4,1.3,0.4,2.7,0,4c-0.4,1.4-1.2,2.7-2.3,3.8l0-0.2c0.9,2.6,2,5.4,3,8.3l0.1,0.2
			l-0.2,0.1l-1.6,0.5l-3.5,1.2l-0.2,0.1l-0.1-0.2c-1-2.9-2-5.6-2.8-8.3l0.2,0.1c-1.4-0.1-2.7-0.6-3.8-1.5c-1-0.8-1.8-1.7-2.4-2.8
			c-0.5-1-0.8-2.1-0.7-3.2c0.1-2.3,1.1-4.4,3-5.8C25.1,35.6,25.5,35.3,26,35.2c-0.4,0.2-0.8,0.5-1.2,0.8c-1,0.8-1.7,1.9-2.2,3.1
			c-0.8,1.8-0.7,3.9,0.2,5.7c0.6,1.1,1.4,2,2.3,2.7c1,0.8,2.3,1.3,3.6,1.4h0.1l0,0.1c0.8,2.6,1.8,5.4,2.8,8.3l-0.2-0.1L35,56
			l1.6-0.5l-0.1,0.2c-1.1-2.9-2.1-5.7-3-8.3v-0.1l0.1-0.1c1-1,1.8-2.3,2.2-3.6c0.4-1.3,0.4-2.6,0-3.9c-0.6-2.1-2.1-3.9-4.1-4.8
			c-0.8-0.3-1.6-0.4-2.4-0.4c-0.6,0-1.2,0.1-1.8,0.2C26.5,35,26,35.2,26,35.2z"/>
	</g>
	<g id="freepik--Device--inject-5" transform="translate(128.337 67.253)">
		<path id="Path_3783" class="st4" d="M85.7,207.6l-70.5-0.3c-8.5,0-15.3-6.9-15.3-15.4L0.7,15.3C0.8,6.8,7.7,0,16.2,0c0,0,0,0,0,0
			l70.4,0.3c8.5,0,15.3,6.9,15.3,15.4l-0.7,176.6C101.1,200.8,94.2,207.7,85.7,207.6C85.7,207.6,85.7,207.6,85.7,207.6z"/>
		<path id="Path_3784" class="st5" d="M86.5,6.4H72.9c-1.9,0-3.4,1.6-3.3,3.5c0,0,0,0,0,0v2.5c0,1.9-1.5,3.4-3.3,3.4c0,0,0,0,0,0
			l-26.6-0.1c-1.9-0.1-3.4-1.6-3.3-3.5V9.7c0-1.9-1.4-3.4-3.3-3.5h-4.8l-12-0.1c-5.9,0-10.8,4.7-10.8,10.6L4.7,189.2
			c0,5.9,4.8,10.8,10.7,10.8l70.3,0.3c5.9,0,10.8-4.8,10.8-10.7c0,0,0,0,0,0l0.7-172.4C97.2,11.3,92.4,6.4,86.5,6.4z"/>
		<path id="Path_3785" class="st2" d="M77,177.3l-52.3-0.2c-0.5,0-1-0.6-1-1.3l0.1-13.7c0-0.7,0.4-1.3,1-1.3l52.3,0.2
			c0.6,0.1,1.1,0.7,1,1.3l0,13.7C78,176.7,77.6,177.3,77,177.3z"/>
		<text transform="matrix(1 0 0 1 38.2842 171.4804)" class="st6 st7 st8">SING UP</text>
		
			<rect id="Rectangle_59" x="24.5" y="49.6" transform="matrix(4.537840e-03 -1 1 4.537840e-03 -32.6952 84.5494)" class="st9" width="3.3" height="18.1"/>
		
			<rect id="Rectangle_60" x="24.5" y="49.6" transform="matrix(4.537840e-03 -1 1 4.537840e-03 -32.6952 84.5494)" class="st2" width="3.3" height="18.1"/>
		<path id="Path_3786" class="st10" d="M88.4,77.5c0.1,0,0.3,0,0.4-0.1c0.4-0.2,0.7-0.5,0.7-1v-9.4c0-0.3,0-0.6-0.2-0.9
			c-0.2-0.3-0.5-0.4-0.8-0.4H77.2l-59-0.2c-0.3,0-0.6,0.1-0.8,0.4c-0.2,0.3-0.2,0.6-0.2,0.9v8.5c0,0.3,0,0.7,0,1
			c0.1,0.3,0.3,0.5,0.6,0.6c0.1,0.1,0.3,0.1,0.4,0.1h3.6l15.7,0.1L64,77.2l17.9,0.1l4.9,0.1H64l-26.5-0.1l-15.7-0.1h-3.6
			c-0.2,0-0.4,0-0.6-0.1c-0.4-0.2-0.7-0.5-0.8-0.9c0-0.2-0.1-0.4,0-0.6v-9c0-0.2,0-0.4,0-0.6c0-0.2,0.1-0.4,0.2-0.6
			c0.2-0.3,0.6-0.5,1.1-0.5l59,0.3l10.2,0.1h1.1c0.4,0,0.8,0.2,1,0.5c0.2,0.3,0.3,0.7,0.2,1v4.5c0,2.1,0,3.7-0.1,4.9
			c0,0.4-0.3,0.8-0.7,1C88.7,77.5,88.5,77.5,88.4,77.5z"/>
		<rect id="Rectangle_61" x="22.5" y="69.1" class="st9" width="33.2" height="3.1"/>
		<rect id="Rectangle_62" x="22.5" y="69.1" class="st2" width="33.2" height="3.1"/>
		
			<rect id="Rectangle_63" x="24.3" y="80" transform="matrix(4.537840e-03 -1 1 4.537840e-03 -63.1883 114.6576)" class="st9" width="3.3" height="18.1"/>
		
			<rect id="Rectangle_64" x="24.3" y="80" transform="matrix(4.537840e-03 -1 1 4.537840e-03 -63.1883 114.6576)" class="st2" width="3.3" height="18.1"/>
		<path id="Path_3787" class="st10" d="M87.9,107.9c0.1,0,0.3,0,0.4-0.1c0.4-0.1,0.7-0.4,0.9-0.8c0.1-0.3,0.2-0.6,0.1-0.9v-8.4
			c0-0.3,0-0.7-0.2-0.9c-0.2-0.3-0.4-0.5-0.8-0.6c-0.4-0.1-0.7-0.1-1.1-0.1H77.2l-58.8-0.2c-0.7,0-1.2,0.5-1.3,1.1v8.5
			c0,0.3,0,0.7,0,1c0.1,0.3,0.3,0.5,0.5,0.7c0.3,0.2,0.6,0.2,0.9,0.2h3l15.6,0.1l26.4,0.2l17.8,0.1l4.8,0.1H63.6l-26.4,0l-15.6-0.1
			h-3.1c-0.4,0-0.8-0.1-1.1-0.3c-0.3-0.2-0.6-0.5-0.7-0.9c-0.1-0.4-0.1-0.7-0.1-1.1V97c0.1-0.8,0.8-1.5,1.7-1.5l58.8,0.3l10.1,0.1
			c0.4,0,0.8,0,1.1,0.1c0.4,0.1,0.7,0.4,0.9,0.7c0.2,0.3,0.3,0.7,0.2,1v8.4c0,0.3,0,0.6-0.1,0.9c-0.2,0.4-0.5,0.7-1,0.8
			C88.2,107.9,88.1,107.9,87.9,107.9L87.9,107.9z"/>
		
			<rect id="Rectangle_65" x="24.2" y="111.7" transform="matrix(4.537840e-03 -1 1 4.537840e-03 -95.0114 146.0658)" class="st9" width="3.3" height="18.1"/>
		
			<rect id="Rectangle_66" x="24.2" y="111.7" transform="matrix(4.537840e-03 -1 1 4.537840e-03 -95.0114 146.0658)" class="st2" width="3.3" height="18.1"/>
		<path id="Path_3788" class="st10" d="M87.8,139.6c0.1,0,0.3,0,0.4-0.1c0.4-0.1,0.7-0.4,0.9-0.8c0.1-0.3,0.2-0.6,0.1-0.9v-8.4
			c0-0.3,0-0.7-0.2-0.9c-0.2-0.3-0.5-0.5-0.8-0.6c-0.4-0.1-0.7-0.1-1.1-0.1H77l-58.8-0.2c-0.7,0-1.2,0.5-1.3,1.1c0,0.7,0,1.4,0,2.1
			v6.3c0,0.3,0,0.7,0,1c0.1,0.3,0.3,0.5,0.5,0.7c0.3,0.2,0.6,0.2,0.9,0.2h3.1l15.6,0.1l26.4,0.2l17.8,0.1l4.8,0.1H63.5l-26.4-0.1
			l-15.6-0.1h-3.1c-0.4,0-0.8-0.1-1.1-0.3c-0.3-0.2-0.6-0.5-0.7-0.9c-0.1-0.4-0.1-0.7-0.1-1.1v-8.5c0.1-0.8,0.8-1.5,1.6-1.5
			l58.8,0.3l10.1,0.1c0.4,0,0.8,0,1.1,0.1c0.4,0.1,0.7,0.4,0.9,0.7c0.2,0.3,0.3,0.7,0.2,1v8.4c0,0.3,0,0.6-0.1,0.9
			c-0.2,0.4-0.5,0.7-1,0.8C88.1,139.6,87.9,139.6,87.8,139.6z"/>
		
			<rect id="Rectangle_67" x="36.8" y="85.2" transform="matrix(4.537840e-03 -1 1 4.537840e-03 -63.5871 139.7102)" class="st9" width="3.1" height="33.2"/>
		
			<rect id="Rectangle_68" x="36.8" y="85.2" transform="matrix(4.537840e-03 -1 1 4.537840e-03 -63.5871 139.7102)" class="st2" width="3.1" height="33.2"/>
		<path id="Path_3789" class="st9" d="M24.8,133.8c-0.1,0.8-0.8,1.4-1.6,1.3c-0.8-0.1-1.4-0.8-1.3-1.6c0.1-0.8,0.7-1.4,1.5-1.3
			C24.2,132.3,24.8,133,24.8,133.8z"/>
		<path id="Path_3790" class="st9" d="M29.3,133.8c-0.1,0.8-0.7,1.4-1.6,1.3c-0.8-0.1-1.4-0.7-1.3-1.6c0.1-0.8,0.7-1.4,1.6-1.3
			c0.2,0,0.5,0.1,0.7,0.2C29.1,132.8,29.3,133.3,29.3,133.8z"/>
		<path id="Path_3791" class="st9" d="M33.8,133.8c-0.1,0.8-0.8,1.4-1.6,1.3c-0.8-0.1-1.4-0.8-1.3-1.6c0.1-0.8,0.7-1.4,1.5-1.3
			C33.2,132.3,33.8,133,33.8,133.8z"/>
		<path id="Path_3792" class="st9" d="M38.3,133.9c-0.1,0.8-0.8,1.4-1.6,1.3c-0.8-0.1-1.4-0.8-1.3-1.6c0.1-0.8,0.7-1.4,1.5-1.3
			C37.7,132.4,38.3,133,38.3,133.9z"/>
		<path id="Path_3793" class="st9" d="M42.8,133.9c-0.1,0.8-0.7,1.4-1.5,1.4c-0.8-0.1-1.4-0.7-1.4-1.5c0.1-0.8,0.7-1.4,1.5-1.4
			C42.2,132.4,42.8,133.1,42.8,133.9z"/>
		<path id="Path_3794" class="st9" d="M47.3,133.9c-0.1,0.8-0.7,1.4-1.5,1.4c-0.8-0.1-1.4-0.7-1.4-1.5c0.1-0.8,0.7-1.4,1.5-1.4
			C46.7,132.4,47.3,133.1,47.3,133.9z"/>
		<path id="Path_3795" class="st9" d="M51.8,133.9c-0.1,0.8-0.7,1.4-1.6,1.3c-0.8-0.1-1.4-0.7-1.3-1.6c0.1-0.8,0.7-1.4,1.6-1.3
			c0.2,0,0.5,0.1,0.7,0.2C51.5,132.9,51.8,133.4,51.8,133.9z"/>
		<path id="Path_3796" class="st9" d="M56.3,133.9c-0.1,0.8-0.7,1.4-1.5,1.4c-0.8-0.1-1.4-0.7-1.4-1.5c0.1-0.8,0.7-1.4,1.5-1.4
			C55.6,132.4,56.3,133.1,56.3,133.9z"/>
		<path id="Path_3797" class="st9" d="M60.8,134c-0.1,0.8-0.7,1.4-1.5,1.4s-1.4-0.7-1.4-1.5c0.1-0.8,0.7-1.4,1.5-1.4
			C60.2,132.5,60.8,133.1,60.8,134z"/>
		<g id="Group_1066" transform="translate(21.897 132.244)">
			<path id="Path_3798" class="st2" d="M2.9,1.6C2.8,2.4,2.1,3,1.3,2.9C0.5,2.8-0.1,2.1,0,1.3C0.1,0.6,0.7,0,1.5,0
				C2.3,0,2.9,0.7,2.9,1.6z"/>
			<path id="Path_3799" class="st2" d="M7.4,1.6C7.3,2.4,6.6,3,5.8,2.9C5,2.9,4.4,2.2,4.5,1.4C4.6,0.6,5.2,0,6,0
				c0.2,0,0.5,0.1,0.7,0.2C7.2,0.5,7.4,1,7.4,1.6z"/>
			<path id="Path_3800" class="st2" d="M11.9,1.6c-0.1,0.8-0.8,1.4-1.6,1.3C9.5,2.9,8.9,2.2,9,1.4C9.1,0.6,9.7,0,10.5,0
				C11.3,0.1,11.9,0.8,11.9,1.6z"/>
			<path id="Path_3801" class="st2" d="M16.4,1.6C16.3,2.4,15.6,3,14.8,3c-0.8-0.1-1.4-0.8-1.3-1.6C13.5,0.6,14.2,0,15,0.1
				C15.8,0.1,16.4,0.8,16.4,1.6z"/>
			<path id="Path_3802" class="st2" d="M20.9,1.6C20.8,2.4,20.1,3,19.3,3c-0.8-0.1-1.4-0.7-1.4-1.5c0.1-0.8,0.7-1.4,1.5-1.4
				C20.3,0.1,20.9,0.8,20.9,1.6z"/>
			<path id="Path_3803" class="st2" d="M25.4,1.7c-0.1,0.8-0.7,1.4-1.5,1.4C23,3,22.4,2.3,22.5,1.5c0.1-0.8,0.7-1.4,1.5-1.4
				C24.8,0.1,25.4,0.8,25.4,1.7z"/>
			<path id="Path_3804" class="st2" d="M29.9,1.7c-0.1,0.8-0.7,1.4-1.6,1.3C27.5,3,26.9,2.3,27,1.5c0.1-0.8,0.7-1.4,1.6-1.3
				c0.2,0,0.5,0.1,0.7,0.2C29.6,0.6,29.9,1.1,29.9,1.7z"/>
			<path id="Path_3805" class="st2" d="M34.4,1.7c-0.1,0.8-0.7,1.4-1.5,1.4C32,3,31.4,2.3,31.5,1.5c0.1-0.8,0.7-1.4,1.5-1.4
				C33.7,0.2,34.4,0.9,34.4,1.7z"/>
			<path id="Path_3806" class="st2" d="M38.9,1.7c-0.1,0.8-0.7,1.4-1.5,1.4S35.9,2.3,36,1.5c0.1-0.8,0.7-1.4,1.5-1.4
				C38.3,0.2,38.9,0.9,38.9,1.7z"/>
		</g>
		<path id="Path_3807" class="st9" d="M54.4,32.1c1-0.4,1.6-1.4,1.6-2.5c0.1-1.4-1-2.6-2.4-2.7c-1.4-0.1-2.6,1-2.7,2.4
			c0,0.1,0,0.2,0,0.2c0,1.1,0.6,2.1,1.6,2.6c-4,0.6-3.8,4.9-3.8,4.9l9.3,0C58.1,37.1,58.3,32.7,54.4,32.1z"/>
		<path id="Path_3808" class="st2" d="M54.4,32.1c1-0.4,1.6-1.4,1.6-2.5c0.1-1.4-1-2.6-2.4-2.7c-1.4-0.1-2.6,1-2.7,2.4
			c0,0.1,0,0.2,0,0.2c0,1.1,0.6,2.1,1.6,2.6c-4,0.6-3.8,4.9-3.8,4.9l9.3,0C58.1,37.1,58.3,32.7,54.4,32.1z"/>
		
			<rect id="Rectangle_69" x="50.9" y="25.1" transform="matrix(4.537840e-03 -1 1 4.537840e-03 10.8772 94.4837)" class="st9" width="4" height="33.3"/>
		
			<rect id="Rectangle_70" x="50.9" y="25.1" transform="matrix(4.537840e-03 -1 1 4.537840e-03 10.8772 94.4837)" class="st2" width="4" height="33.3"/>
	</g>
	<g id="freepik--Character--inject-5" transform="translate(75.518 161.926)">
		<path id="Path_3809" class="st11" d="M34.3,193.1v-6l-10.8-0.1l-0.1,9.1l0.7,0c3,0.2,15.2,0.5,17.2-0.1
			C43.5,195.3,34.3,193.1,34.3,193.1z"/>
		<path id="Path_3810" class="st3" d="M41.5,195.4c0,0.1-4,0.2-9,0.2s-9-0.1-9-0.2s4-0.2,9-0.2S41.5,195.3,41.5,195.4z"/>
		<path id="Path_3811" class="st3" d="M34.5,194.3c-0.1,0,0-0.4,0.2-0.7s0.5-0.5,0.6-0.4s-0.1,0.3-0.3,0.6S34.6,194.3,34.5,194.3z"
			/>
		<path id="Path_3812" class="st3" d="M35.2,194.7c-0.1,0,0-0.4,0.2-0.8s0.5-0.6,0.6-0.5s0,0.4-0.2,0.7S35.3,194.7,35.2,194.7z"/>
		<path id="Path_3813" class="st3" d="M26.7,195.4c0,0-0.2-0.1-0.4-0.4c-0.3-0.3-0.6-0.7-0.9-0.9c-0.3-0.3-0.7-0.4-1.2-0.5
			c-0.3,0-0.5,0-0.6,0s0.2-0.2,0.6-0.2c0.5,0,1,0.2,1.4,0.5c0.4,0.3,0.7,0.7,0.9,1.1C26.7,195.1,26.8,195.3,26.7,195.4z"/>
		<path id="Path_3814" class="st3" d="M34.6,193.1c0,0.1-0.1,0.3-0.4,0.4s-0.6,0.1-0.6,0s0.2-0.2,0.5-0.3S34.5,193.1,34.6,193.1z"/>
		<path id="Path_3815" class="st3" d="M34.4,192.6c0,0.1-0.3,0.2-0.6,0.2s-0.7-0.1-0.6-0.2s0.3-0.2,0.6-0.2S34.4,192.5,34.4,192.6z"
			/>
		<path id="Path_3816" class="st11" d="M61,193.1v-6l-10.8-0.1l-0.1,9l0.7,0c3,0.2,15.2,0.6,17.2-0.1C70.1,195.3,61,193.1,61,193.1z
			"/>
		<path id="Path_3817" class="st3" d="M68.2,195.4c0,0.1-4,0.2-9,0.2s-9-0.1-9-0.2s4-0.2,9-0.2S68.2,195.3,68.2,195.4z"/>
		<path id="Path_3818" class="st3" d="M61.2,194.3c-0.1,0,0-0.4,0.2-0.7s0.5-0.5,0.6-0.4s-0.1,0.3-0.3,0.6S61.2,194.3,61.2,194.3z"
			/>
		<path id="Path_3819" class="st3" d="M61.8,194.7c-0.1,0,0-0.4,0.2-0.8s0.5-0.6,0.6-0.5s-0.1,0.4-0.3,0.7S61.9,194.7,61.8,194.7z"
			/>
		<path id="Path_3820" class="st3" d="M53.4,195.4c0,0-0.2-0.1-0.4-0.4c-0.3-0.3-0.6-0.7-0.9-0.9c-0.3-0.3-0.7-0.4-1.2-0.5
			c-0.3,0-0.5,0-0.6,0s0.2-0.2,0.6-0.2c0.5,0,1,0.2,1.4,0.5c0.4,0.3,0.7,0.7,0.9,1.1C53.3,195.1,53.4,195.3,53.4,195.4z"/>
		<path id="Path_3821" class="st3" d="M61.2,193.1c0,0.1-0.1,0.3-0.4,0.4s-0.6,0.1-0.6,0s0.2-0.2,0.5-0.3S61.1,193.1,61.2,193.1z"/>
		<path id="Path_3822" class="st3" d="M61,192.6c0,0.1-0.3,0.2-0.6,0.2s-0.6-0.1-0.6-0.2s0.3-0.2,0.6-0.2S61,192.5,61,192.6z"/>
		<path id="Path_3823" class="st12" d="M100.8,14c-0.3-0.3-1-0.1-1-0.1c0.1-0.4,0.1-0.8,0-1.2c-0.1-0.4-1-0.3-1-0.3c0-0.3,0-0.7,0-1
			c0-0.2-0.1-0.3-0.2-0.4c-0.4-0.2-0.9-0.3-1.3-0.2c-0.5-0.4,1.7-3.5,2.5-4.5s0.7-1.8-0.1-1.8c-0.5,0-3.1,3-3.9,4s-2.9,3.8-3,1.6
			s-1-3.9-1.5-4.2s-1.1,0.4-0.8,1C90.8,7.5,91,8.2,91,9c0.1,0.6,0.1,1.2-0.1,1.8c-0.2,1.1-0.6,2.2-1,3.2h-0.1
			c0,0-15.4,14.8-16.5,15.8c-1,0.9-21-1.1-25-1.5c-1.4-0.2-2.7-0.3-4.1-0.3c-1.7,0.1-2.1,0.3-3.8,0.3c-4.4,0-8.8,0.4-13.1,1.1
			c-4,0.7-7.3,3.5-8.5,7.4c-4,12.6-13.2,42.5-14.8,59.3c-1.2,2.2-2.3,4.5-3.3,6.8c-1.1,3.1-0.9,3.2-0.5,3.3c1,0.2,2.2-5.4,2.6-4
			s-2.2,6.6-1.1,6.8c1.4,0.2,2.5-5.6,2.7-6.1s0.8-0.3,0.7,0.1c-0.2,0.6-2.2,7.2-0.8,7.4c0.8,0.1,0.8-1.3,0.8-1.3s1.4-6.3,2.1-6.2
			s0,3.8-0.4,5.1s0.1,1.9,0.8,1.6c0.5-0.2,1.5-4,1.8-5.2s1-4.6,2-2.7s2.5,3.1,3.1,3.1c0.4,0,0.7-0.4,0.6-0.8c0-0.2-0.1-0.4-0.3-0.5
			c-0.5-0.5-1-1.1-1.4-1.8c-0.3-0.5-0.6-1.1-0.7-1.6c-0.3-1.2-0.4-2.4-0.5-3.6l-0.1-0.7c1.6-7.8,6.1-30.8,12.7-45.4l2.7,5.5l1.2,4.1
			l-7.2,17.7l30.6-0.4l-4.6-17.6l5.6-18.3l0,0c6,0.1,21.4,0.4,24-0.8c3.2-1.4,19.9-22.5,19.9-22.5l0,0c1.1-0.8,2.1-1.8,3.1-2.7
			C100.4,15.5,101.4,14.6,100.8,14z"/>
		<path id="Path_3824" class="st11" d="M20.4,64.7c0.9-3,5.5-18,5.5-18s2.2,12.2,1.6,13.7c-0.5,1.3-1.2,2.5-1.9,3.6
			c-5.2,7.9-4.5,11.8-4.5,11.8l31.3-1c0.1-4.4-2.5-14.5-3.1-16.2s1.2-6.9,1.2-6.9s3.5-3.6,3.4-5.4c-0.1-1.7-0.3-3.3-0.6-4.9l19,0.7
			l-0.6-12.9l-27.4-2.7c-1,2.7-9.6,1.4-9.6,1.4c-9.3,0.3-9.9,2-13.7,5S10.9,61.7,10.9,61.7L20.4,64.7z"/>
		<path id="Path_3825" class="st3" d="M38.9,61.7c-0.5,0.1-1.1,0.1-1.6,0.1c-1,0-2.4-0.1-4-0.2s-2.9-0.4-3.9-0.6
			c-0.5-0.1-1.1-0.2-1.6-0.4c0.6,0,1.1,0.1,1.6,0.2c1,0.1,2.4,0.3,3.9,0.5s2.9,0.3,3.9,0.3C37.8,61.5,38.4,61.6,38.9,61.7z"/>
		<path id="Path_3826" class="st3" d="M41,59c-0.5,0.3-1.1,0.5-1.7,0.6c-2.8,0.7-5.7,1.1-8.6,1c-0.6,0-1.2,0-1.8-0.2
			c0.6-0.1,1.2-0.1,1.8-0.1c1.1,0,2.6-0.1,4.3-0.3s3.2-0.5,4.2-0.7C39.8,59.2,40.4,59.1,41,59z"/>
		<path id="Path_3827" class="st3" d="M51.6,47.1c0,0.5-0.1,1.1-0.2,1.6c-0.2,1-0.5,2.3-0.8,3.8s-0.7,2.8-1,3.7
			c-0.1,0.5-0.3,1-0.6,1.5c0-0.5,0.1-1.1,0.3-1.6c0.3-1.1,0.6-2.4,0.9-3.8s0.7-2.7,0.9-3.8C51.2,48.2,51.4,47.6,51.6,47.1L51.6,47.1
			z"/>
		<path id="Path_3828" class="st3" d="M20.7,62.9c-1.6-0.3-3.2-0.6-4.8-1.1c-1.6-0.4-3.2-0.9-4.7-1.5c1.6,0.3,3.2,0.6,4.8,1.1
			C17.6,61.8,19.2,62.3,20.7,62.9z"/>
		<path id="Path_3829" class="st3" d="M53.7,41.3c-0.3,0-0.5,0-0.8,0c-0.7-0.1-1.5-0.2-2.2-0.5c-2.3-0.9-4.2-2.7-5.1-5
			c-0.5-1.3-0.7-2.6-0.6-4c0-1.1,0.4-2.2,1-3.1c0.4-0.6,1.1-1.1,1.8-1.3c0.2-0.1,0.4-0.1,0.6-0.1h0.2c-0.3,0-0.5,0.1-0.8,0.2
			c-0.7,0.2-1.2,0.7-1.6,1.3c-1.1,2.1-1.2,4.6-0.2,6.8c0.5,1.2,1.2,2.3,2.2,3.2c0.8,0.7,1.7,1.3,2.7,1.7
			C51.7,40.9,52.7,41.1,53.7,41.3z"/>
		<path id="Path_3830" class="st3" d="M70.1,41.9c-0.2-2.2-0.2-4.3-0.2-6.5c-0.1-2.2,0-4.3,0.2-6.5c0.2,2.2,0.2,4.3,0.2,6.5
			C70.4,37.5,70.3,39.7,70.1,41.9z"/>
		<path id="Path_3831" class="st12" d="M44.3,27.3c0.1-1.6,0.2-3.4,0.2-3.4c2.3-0.3,4-2.2,4.1-4.4c0.2-4,0-13.3,0-13.3l-7.1-3.6
			l-7.8,6.2l1.2,20.1l7.2,0.5C43.3,29.3,44.2,28.4,44.3,27.3L44.3,27.3z"/>
		<path id="Path_3832" class="st13" d="M44.9,16.3c0,0.1,0,0.1-0.1,0.2c-0.1,0.1-0.3,0.2-0.4,0.2c-0.5,0-0.9-0.5-1-1.1
			c-0.1-0.3-0.1-0.6,0-0.9c0-0.3,0.2-0.5,0.4-0.6c0.1,0,0.2,0,0.3,0c0.1,0,0.1,0.1,0.2,0.2c0,0.1,0,0.1,0,0.2c0-0.1,0-0.1-0.1-0.1
			c-0.1-0.1-0.2-0.1-0.3-0.1c-0.2,0.1-0.3,0.3-0.3,0.5c-0.1,0.3-0.1,0.5,0,0.8c0.1,0.6,0.5,1,0.9,1c0.1,0,0.3,0,0.4-0.1
			C44.9,16.3,44.9,16.3,44.9,16.3z"/>
		<path id="Path_3833" class="st3" d="M51,4c-0.5-1.8-2.5-2.8-4.3-3.3c-2.7-0.9-5.6-1-8.3-0.1c-2.7,1-5.9,2.7-5.9,5.6
			c-1.6-0.1-2.5,1.2-3.1,3c-0.4,1-0.6,2.1-0.7,3.2l0,0c-0.2,3.9-1.3,9.2-3.8,12c-1.4,1.6-3.4,2.7-4.2,4.6c-0.7,1.7-0.3,3.7-1,5.4
			c-0.6,1.5-1.9,2.6-2.8,3.9c-2,3-2.2,6.9-0.7,10.1c1.5,3.2,4.3,5.6,7.7,6.6c3.3,1,6.8,1,10.1,0.1c2.5-0.6,4.8-1.7,6.8-3.4
			c2-1.7,3.4-4,3.9-6.5c0.5-2.9-0.3-5.8-0.9-8.7c-1.9-9-1.3-9.5,1-17.9c0.1-0.1,0.1-0.3,0.1-0.5s0.1-0.2,0.1-0.3l0,0
			c0.1-0.3,0.1-0.7,0.1-1c-0.7,0.3-1.5,0.1-2-0.4c-0.5-0.6-0.7-1.4-0.5-2.1c0.3-0.8,1-1.4,1.8-1.7c0.8-0.3,1.6-0.5,2.4-0.9
			c1.6-0.9,2.9-2.3,3.5-4.1C51.1,6.7,51.3,5.3,51,4L51,4z"/>
		<path id="Path_3834" class="st9" d="M45.2,16.5c0.1,0.2,0.3,0.5,0.4,0.7c0.2,0.4,0.5,1.1,0.8,1.8l0.1,0.1h-0.1l-0.7,0.1
			c-0.5,0-0.9,0.1-1.4,0.1c-0.1,0-0.2-0.1-0.2-0.2c0-0.1,0-0.1,0-0.2c0-0.1,0-0.2,0.1-0.3l0.1-0.5c0.1-0.3,0.2-0.7,0.3-1
			c0,0.3-0.1,0.7-0.1,1l-0.1,0.5c0,0.2-0.1,0.4,0,0.4c0.4,0,0.9-0.1,1.3-0.1l0.7-0.1l-0.1,0.2c-0.3-0.7-0.6-1.4-0.7-1.8
			C45.4,17,45.3,16.7,45.2,16.5L45.2,16.5z"/>
		<path id="Path_3835" class="st3" d="M21.1,75.9l31.3-1L66,128l-2.5,61H46.9l2-59.7l-12.1-37l1.9,99L22,191.6l-1.8-93.1
			c-0.1-2.6-0.9-8.4-0.6-11L21.1,75.9z"/>
		<path id="Path_3836" class="st4" d="M41,93.1c-0.5,0-1,0-1.5-0.1c-0.9-0.1-2.2-0.3-3.7-0.6s-2.7-0.6-3.6-0.9
			c-0.5-0.1-1-0.3-1.4-0.5c0-0.1,2.3,0.4,5.1,1S41,93,41,93.1z"/>
		<path id="Path_3837" class="st4" d="M63.3,185.6c0,0.1-3.7,0.2-8.4,0.2s-8.4-0.1-8.4-0.2s3.7-0.2,8.4-0.2S63.3,185.5,63.3,185.6z"
			/>
		<path id="Path_3838" class="st4" d="M38.6,188.8c0,0.1-3.6,0.2-8.1,0.2s-8.1-0.1-8.1-0.2s3.6-0.2,8.1-0.2S38.6,188.7,38.6,188.8z"
			/>
		<path id="Path_3839" class="st4" d="M36.4,188.5c-0.1,0-0.5-21.6-1-48.3s-0.7-48.3-0.6-48.3s0.5,21.6,1,48.3
			S36.5,188.5,36.4,188.5z"/>
		<path id="Path_3840" class="st4" d="M61.1,185.6c0-0.1,0-0.2,0-0.3v-0.8c0-0.8,0.1-1.9,0.1-3.2c0.1-2.8,0.2-6.9,0.4-11.9
			c0.4-10.1,0.9-24,1.5-39.4v-0.4c-3.7-14.8-7.1-28.3-9.5-38l-2.8-11.5c-0.3-1.3-0.6-2.4-0.7-3.1c-0.1-0.3-0.1-0.6-0.2-0.8
			c0-0.1,0-0.2,0-0.3c0,0.1,0.1,0.2,0.1,0.3c0.1,0.2,0.1,0.5,0.2,0.8c0.2,0.7,0.5,1.8,0.8,3.1c0.7,2.7,1.7,6.6,2.9,11.5
			c2.5,9.7,5.8,23.1,9.6,38v0.5c-0.6,15.4-1.2,29.3-1.6,39.4c-0.2,5-0.4,9.1-0.5,11.9c-0.1,1.4-0.1,2.5-0.2,3.2c0,0.4,0,0.6,0,0.8
			C61.1,185.5,61.1,185.6,61.1,185.6z"/>
		<path id="Path_3841" class="st4" d="M55.7,128.3c-1.2,0.4-2.4,0.7-3.7,0.8c-1.5,0.3-2.8,0.4-3.4,0.5v-0.1c0.2,0.1,0.3,0.1,0.3,0.1
			s-0.1,0-0.3,0h-0.4l0.4-0.1c0.6-0.2,1.8-0.4,3.4-0.7C53.2,128.4,54.4,128.3,55.7,128.3L55.7,128.3z"/>
		<path id="Path_3842" class="st4" d="M55.4,130.3c-1.1,0.1-2.2,0-3.3-0.1c-1.1,0-2.2-0.1-3.3-0.4C51,129.6,53.2,129.8,55.4,130.3z"
			/>
		<path id="Path_3843" class="st14" d="M20.9,77c0.7,1,1.9,1.6,3.1,1.6c1.3,0.1,2.5,0.1,3.8-0.1c8.1-0.9,16.6-1.7,24.5-3.6
			c-10.2,0.6-21,0.4-31.3,1L21,76.7"/>
		<g id="Group_1067" transform="translate(31.492 91.397)" class="st15">
			<path id="Path_3844" d="M0,0l5.8,22.4L5.4,0.9L0,0z"/>
		</g>
	</g>
</g>
</svg>
